<?xml version="1.0" standalone="no"?>
<!DOCTYPE svg PUBLIC "-//W3C//DTD SVG 20010904//EN"
 "http://www.w3.org/TR/2001/REC-SVG-20010904/DTD/svg10.dtd">
<svg version="1.0" xmlns="http://www.w3.org/2000/svg"
 width="320.000000pt" height="704.000000pt" viewBox="0 0 320.000000 704.000000"
 preserveAspectRatio="xMidYMid meet">

<g transform="translate(0.000000,704.000000) scale(0.100000,-0.100000)"
fill="#000000" stroke="none">
<path d="M0 6385 l0 -655 1320 0 1320 0 0 58 c0 72 24 121 70 144 50 26 250
26 300 0 46 -23 70 -72 70 -144 l0 -58 60 0 60 0 0 655 0 655 -1600 0 -1600 0
0 -655z m2410 595 c11 -6 17 -17 14 -25 -5 -11 -11 -12 -24 -5 -10 6 -25 7
-34 4 -26 -10 -42 7 -21 23 22 16 40 17 65 3z m110 -22 c0 -5 -4 -8 -10 -8 -5
0 -10 10 -10 23 0 18 2 19 10 7 5 -8 10 -18 10 -22z m22 18 c7 5 8 2 3 -7 -5
-8 1 -6 12 4 25 22 30 15 38 -44 4 -30 3 -38 -4 -24 -4 11 -6 24 -3 29 2 5 -1
6 -9 4 -8 -3 -13 -15 -13 -26 1 -12 -3 -22 -8 -22 -15 0 -21 30 -8 45 10 12 9
15 -4 15 -9 0 -16 2 -16 4 0 2 -2 10 -3 18 -2 7 -2 10 0 5 3 -4 10 -4 15 -1z
m108 -4 c0 -10 -7 -19 -15 -19 -8 0 -15 9 -15 19 0 10 7 18 15 18 8 0 15 -8
15 -18z m384 2 c3 -9 6 -31 6 -50 0 -31 -3 -34 -30 -34 -28 0 -30 2 -30 38 0
53 39 86 54 46z m-2819 -34 c0 -27 -5 -36 -20 -38 l-20 -4 20 16 c11 9 16 16
10 15 -26 -4 -35 3 -35 27 0 21 4 25 23 22 18 -2 22 -9 22 -38z m100 20 c10
-33 -4 -62 -28 -58 -22 3 -34 35 -23 64 8 21 44 17 51 -6z m55 -20 c0 -22 -4
-40 -10 -40 -5 0 -10 14 -10 30 0 17 -5 30 -11 30 -5 0 -7 5 -4 10 3 6 13 10
21 10 10 0 14 -12 14 -40z m153 26 c39 -30 0 -70 -64 -64 -27 2 -35 8 -37 26
-2 13 -1 30 2 38 7 18 75 18 99 0z m87 2 c15 -10 22 -10 32 0 24 24 39 14 36
-25 -3 -33 -28 -62 -28 -31 0 7 -11 13 -25 13 -14 0 -25 -6 -25 -13 0 -31 -25
-2 -28 31 -3 39 5 45 38 25z m188 0 c18 -18 14 -46 -8 -53 -11 -3 -20 -11 -20
-17 0 -16 -38 21 -45 43 -4 10 -3 23 0 29 9 14 58 13 73 -2z m1909 -50 c-2
-13 -4 -3 -4 22 0 25 2 35 4 23 2 -13 2 -33 0 -45z m86 22 c-9 -22 -20 -40
-25 -40 -4 0 -2 15 6 34 14 33 13 35 -7 39 -15 3 -13 5 10 6 l31 1 -15 -40z
m65 0 c2 -23 -2 -40 -8 -40 -5 0 -10 14 -10 30 0 17 -5 30 -11 30 -5 0 -7 5
-4 10 14 23 31 8 33 -30z m62 29 c0 -5 5 -7 10 -4 6 3 10 2 10 -4 0 -18 -20
-23 -26 -7 -3 9 -11 16 -16 16 -6 0 -5 -6 2 -15 8 -9 9 -15 2 -15 -15 0 -25
18 -17 30 8 13 35 13 35 -1z m-1995 -29 c0 -22 -29 -18 -33 3 -3 14 1 18 15
15 10 -2 18 -10 18 -18z m1752 -32 c-2 -13 -4 -5 -4 17 -1 22 1 32 4 23 2 -10
2 -28 0 -40z m-283 34 c2 -4 0 -14 -5 -22 -8 -13 -10 -13 -18 0 -10 15 -6 30
9 30 5 0 11 -4 14 -8z m49 -29 c-5 -12 -8 -13 -11 -4 -4 11 -6 11 -13 0 -4 -7
-12 -10 -16 -5 -9 9 26 38 38 30 4 -2 5 -12 2 -21z m59 2 c3 -14 1 -25 -3 -25
-5 0 -9 11 -9 25 0 14 2 25 4 25 2 0 6 -11 8 -25z m30 0 c-2 -14 -6 -25 -7
-25 -1 0 -5 11 -7 25 -3 16 -1 25 7 25 8 0 10 -9 7 -25z m125 -12 c-3 -10 -5
-4 -5 12 0 17 2 24 5 18 2 -7 2 -21 0 -30z m301 15 c4 -19 -22 -25 -33 -8 -4
6 -11 8 -16 5 -9 -6 -13 8 -4 17 12 12 50 2 53 -14z m-318 -12 c0 -3 -4 -8
-10 -11 -5 -3 -10 -1 -10 4 0 6 5 11 10 11 6 0 10 -2 10 -4z m-2433 -258 c6
-7 10 -33 9 -58 -1 -45 -1 -45 -38 -48 l-38 -3 0 60 c0 60 0 61 29 61 16 0 33
-6 38 -12z m420 -80 c-2 -18 -4 -4 -4 32 0 36 2 50 4 33 2 -18 2 -48 0 -65z
m363 65 l0 -27 30 29 c16 16 32 26 35 23 3 -2 -4 -13 -15 -23 -25 -23 -25 -30
1 -66 11 -16 16 -29 10 -29 -6 0 -18 11 -27 25 -18 27 -34 25 -34 -6 0 -10 -4
-19 -10 -19 -6 0 -10 27 -10 60 0 33 4 60 10 60 6 0 10 -12 10 -27z m590 -5
c0 -29 1 -30 18 -15 26 23 39 21 18 -2 -17 -18 -17 -21 -1 -45 21 -32 4 -35
-18 -3 l-16 22 0 -22 c-1 -13 -5 -23 -11 -23 -6 0 -10 27 -10 60 0 33 4 60 10
60 6 0 10 -14 10 -32z m-139 10 c5 -65 3 -98 -8 -98 -8 0 -13 13 -13 34 0 19
-5 36 -12 38 -9 3 -8 9 2 21 18 20 30 21 31 5z m1335 -17 c42 -19 84 -67 84
-95 0 -9 21 -26 48 -40 27 -13 54 -31 60 -39 7 -8 29 -18 50 -22 143 -27 184
-193 69 -279 -27 -20 -43 -21 -245 -24 -204 -2 -219 -1 -250 18 -64 40 -76
120 -26 179 l24 29 -25 38 c-29 43 -34 118 -10 164 40 77 138 109 221 71z
m-2466 -10 c15 -29 13 -31 -21 -31 -20 0 -29 -4 -26 -12 2 -7 14 -13 26 -12
11 0 21 -3 21 -8 0 -16 -52 -4 -63 14 -8 12 -7 24 1 42 14 31 47 34 62 7z m90
-1 c13 -24 13 -70 0 -70 -5 0 -10 16 -10 35 0 28 -4 35 -20 35 -16 0 -20 -7
-20 -35 0 -19 -4 -35 -10 -35 -5 0 -10 20 -10 43 0 42 1 44 30 45 20 0 33 -6
40 -18z m100 -34 c0 -59 -16 -82 -50 -71 -29 9 -25 23 5 17 15 -2 25 0 25 7 0
6 -9 11 -20 11 -12 0 -25 10 -31 24 -16 35 3 66 41 66 30 0 30 -1 30 -54z m74
48 c11 -4 16 -19 16 -46 0 -38 -1 -39 -32 -36 -25 2 -33 8 -33 23 0 13 8 21
23 23 22 3 28 13 15 25 -3 4 -12 2 -20 -5 -7 -6 -17 -8 -20 -4 -4 4 -1 11 7
16 18 11 23 12 44 4z m96 -35 c0 -33 3 -40 18 -37 12 2 18 14 20 41 4 49 22
38 22 -14 0 -38 -1 -39 -34 -39 -22 0 -36 6 -40 16 -10 25 -7 74 4 74 6 0 10
-18 10 -41z m120 31 c0 -4 -6 -10 -14 -13 -8 -3 -16 -21 -19 -39 -3 -27 -4
-25 -5 12 -2 39 1 46 18 47 11 1 20 -2 20 -7z m32 -27 c2 -26 8 -38 18 -38 10
0 16 12 18 38 4 52 22 46 22 -8 0 -44 0 -45 -34 -45 -37 0 -46 12 -46 61 0 42
18 36 22 -8z m318 18 c5 -11 10 -31 10 -45 0 -23 -4 -26 -34 -26 -19 0 -37 4
-40 9 -11 18 6 41 30 41 13 0 24 5 24 11 0 7 -10 9 -25 7 -24 -5 -32 2 -18 15
13 14 43 7 53 -12z m70 8 c0 -5 -4 -9 -10 -9 -5 0 -10 -16 -10 -35 0 -19 -4
-35 -10 -35 -5 0 -10 19 -10 43 0 36 3 43 20 44 11 1 20 -2 20 -8z m88 -36 c2
-26 -1 -43 -7 -43 -6 0 -11 16 -11 36 0 49 -32 44 -41 -6 -6 -34 -6 -33 -8 11
-1 46 -1 46 32 45 30 -1 32 -3 35 -43z m76 41 c11 -4 16 -19 16 -46 0 -38 -1
-39 -32 -36 -25 2 -33 8 -33 23 0 13 8 21 23 23 22 3 28 13 15 25 -3 4 -12 2
-20 -5 -7 -6 -17 -8 -20 -4 -4 4 -1 11 7 16 18 11 23 12 44 4z m154 -6 c7 -7
12 -27 12 -45 0 -31 -2 -33 -34 -33 -36 0 -53 19 -33 39 6 6 19 11 29 11 10 0
18 5 18 11 0 7 -10 9 -25 7 -24 -5 -32 2 -18 15 10 11 38 8 51 -5z m183 -36
l5 -43 -35 3 c-28 2 -36 7 -36 23 0 14 8 21 28 23 15 2 27 8 27 14 0 6 -12 8
-31 4 -28 -5 -30 -4 -19 9 7 9 23 15 34 13 16 -2 22 -12 27 -46z m-801 -42 c0
-11 -4 -20 -9 -20 -5 0 -7 9 -4 20 3 11 7 20 9 20 2 0 4 -9 4 -20z m-655 -174
c30 -13 35 -20 35 -49 0 -35 -35 -92 -80 -132 l-22 -20 56 -5 c84 -7 74 -25
-16 -28 -97 -4 -99 4 -23 89 55 61 66 94 43 117 -19 19 -46 14 -64 -13 -9 -14
-23 -25 -30 -25 -17 0 -17 2 -3 34 10 20 32 35 67 45 1 1 18 -6 37 -13z m463
3 c41 -14 55 -53 50 -135 -5 -75 -27 -104 -78 -104 -47 0 -70 40 -70 122 0 77
10 105 43 118 12 5 22 9 23 9 1 1 15 -4 32 -10z m175 -21 c7 -24 -5 -48 -29
-54 -49 -12 -73 41 -32 70 22 16 52 8 61 -16z m198 3 c10 -9 20 -26 24 -38 9
-32 -22 -31 -34 1 -16 40 -59 48 -91 16 -26 -26 -28 -124 -3 -152 24 -27 69
-23 89 7 14 22 44 35 44 19 0 -12 -24 -50 -39 -61 -27 -21 -85 -16 -114 11
-46 43 -46 157 1 199 33 29 93 29 123 -2z m-601 4 c0 -11 -12 -15 -49 -15 -47
0 -49 -1 -53 -30 -4 -26 -2 -29 14 -24 58 18 108 -43 87 -105 -20 -56 -82 -69
-126 -25 -19 20 -23 28 -14 37 9 9 16 7 30 -11 13 -17 25 -23 47 -20 25 3 29
8 32 36 5 50 -13 65 -66 57 l-45 -7 7 32 c3 18 6 45 6 61 0 29 0 29 65 29 51
0 65 -3 65 -15z m78 -208 c2 -10 -3 -17 -12 -17 -18 0 -29 16 -21 31 9 14 29
6 33 -14z"/>
<path d="M2353 6972 c-6 -4 6 -7 27 -7 21 0 33 3 27 7 -7 4 -19 8 -27 8 -8 0
-20 -4 -27 -8z"/>
<path d="M2571 6964 c0 -11 3 -14 6 -6 3 7 2 16 -1 19 -3 4 -6 -2 -5 -13z"/>
<path d="M180 6956 c0 -9 7 -16 16 -16 17 0 14 22 -4 28 -7 2 -12 -3 -12 -12z"/>
<path d="M274 6955 c-8 -19 2 -45 16 -45 5 0 10 14 10 30 0 31 -16 41 -26 15z"/>
<path d="M460 6940 c0 -5 5 -10 10 -10 6 0 10 5 10 10 0 6 -4 10 -10 10 -5 0
-10 -4 -10 -10z"/>
<path d="M605 6946 c14 -10 23 -11 37 -3 9 6 15 13 13 16 -3 2 -11 -2 -19 -8
-10 -8 -16 -9 -21 -1 -3 5 -11 10 -18 10 -6 0 -2 -6 8 -14z"/>
<path d="M160 6625 c0 -8 9 -15 20 -15 11 0 20 7 20 15 0 8 -9 15 -20 15 -11
0 -20 -7 -20 -15z"/>
<path d="M160 6570 c0 -16 5 -21 23 -18 12 2 22 10 22 18 0 8 -10 16 -22 18
-18 3 -23 -2 -23 -18z"/>
<path d="M260 6600 c0 -5 9 -10 20 -10 11 0 20 5 20 10 0 6 -9 10 -20 10 -11
0 -20 -4 -20 -10z"/>
<path d="M444 6595 c-9 -21 3 -45 21 -45 10 0 15 10 15 30 0 32 -26 43 -36 15z"/>
<path d="M540 6564 c0 -9 5 -14 12 -12 18 6 21 28 4 28 -9 0 -16 -7 -16 -16z"/>
<path d="M1090 6564 c0 -9 7 -14 17 -12 25 5 28 28 4 28 -12 0 -21 -6 -21 -16z"/>
<path d="M1340 6564 c0 -9 5 -14 12 -12 18 6 21 28 4 28 -9 0 -16 -7 -16 -16z"/>
<path d="M1485 6571 c-3 -5 -1 -12 5 -16 12 -7 30 2 30 16 0 12 -27 12 -35 0z"/>
<path d="M1660 6564 c0 -9 7 -14 17 -12 25 5 28 28 4 28 -12 0 -21 -6 -21 -16z"/>
<path d="M660 6331 c-5 -11 -10 -45 -10 -76 0 -69 13 -95 46 -95 30 0 44 31
44 98 0 76 -52 123 -80 73z"/>
<path d="M834 6339 c-8 -14 11 -33 25 -25 6 4 11 14 11 22 0 16 -26 19 -36 3z"/>
<path d="M2850 5765 c0 -18 -5 -25 -20 -25 -11 0 -20 -4 -20 -9 0 -5 9 -7 20
-4 16 4 20 0 20 -21 0 -14 5 -26 10 -26 6 0 10 11 10 24 0 18 7 26 23 29 l22
4 -22 2 c-17 1 -23 7 -23 26 0 14 -4 25 -10 25 -5 0 -10 -11 -10 -25z"/>
<path d="M120 5473 c-49 -18 -50 -22 -50 -268 0 -223 1 -233 21 -251 21 -18
62 -19 1488 -22 990 -2 1478 0 1502 7 23 7 40 20 47 36 13 27 17 410 6 453
-15 55 59 52 -1531 51 -807 0 -1475 -3 -1483 -6z m350 -168 c0 -8 7 -15 15
-15 8 0 15 -6 15 -12 0 -9 4 -8 10 2 9 13 11 13 20 0 6 -10 10 -11 10 -2 0 6
5 12 11 12 8 0 9 -11 5 -32 -8 -40 -14 -46 -27 -28 -8 11 -12 12 -16 3 -9 -22
-22 -14 -32 20 l-9 32 -1 -33 c-1 -30 -4 -33 -28 -30 -22 2 -29 9 -31 31 -3
22 1 30 17 34 12 3 21 12 21 19 0 8 5 14 10 14 6 0 10 -7 10 -15z m122 -39
c-5 -58 -24 -61 -21 -3 3 47 7 59 17 53 4 -2 6 -25 4 -50z m98 40 c0 -7 9 -16
20 -19 15 -4 20 -14 20 -36 0 -17 -4 -31 -10 -31 -5 0 -10 11 -10 25 0 14 -4
25 -10 25 -5 0 -10 -11 -10 -25 0 -14 -4 -25 -10 -25 -5 0 -10 23 -10 50 0 28
5 50 10 50 6 0 10 -6 10 -14z m-430 -12 c0 -11 -6 -14 -22 -10 l-23 6 23 -12
c15 -7 22 -19 20 -32 -4 -27 -40 -33 -59 -10 -13 16 -11 17 16 11 l30 -7 -27
20 c-33 26 -27 50 13 50 20 0 29 -5 29 -16z m68 -42 c3 -31 2 -33 -25 -30 -32
3 -46 37 -16 39 17 1 17 2 0 6 -24 6 -10 25 16 21 17 -2 23 -11 25 -36z m70 1
c2 -25 -1 -33 -12 -33 -10 0 -17 10 -17 28 l-2 27 -4 -27 c-6 -40 -23 -34 -23
8 0 33 2 35 28 32 22 -2 28 -8 30 -35z m260 18 c3 -9 -2 -11 -17 -6 -15 5 -21
2 -21 -10 0 -12 6 -15 21 -10 15 5 20 3 17 -6 -3 -8 -14 -15 -26 -17 -16 -2
-23 3 -28 22 -3 14 -3 30 1 36 9 15 47 9 53 -9z m-428 -156 c0 -19 -4 -35 -10
-35 -5 0 -10 9 -10 19 0 11 -3 26 -6 35 -4 11 -1 16 10 16 12 0 16 -10 16 -35z
m49 -2 c-2 -31 -3 -33 -6 -10 -2 15 -9 27 -14 27 -5 0 -9 5 -9 10 0 6 7 10 15
10 11 0 15 -10 14 -37z m66 2 c0 -23 -4 -30 -20 -30 -15 0 -21 8 -23 33 -3 30
-1 33 20 30 18 -2 23 -9 23 -33z"/>
<path d="M430 5255 c0 -8 5 -15 10 -15 6 0 10 7 10 15 0 8 -4 15 -10 15 -5 0
-10 -7 -10 -15z"/>
<path d="M310 5121 c0 -11 5 -23 10 -26 6 -4 10 5 10 19 0 14 -4 26 -10 26 -5
0 -10 -9 -10 -19z"/>
<path d="M115 4800 c-44 -17 -46 -26 -43 -271 l3 -234 35 -18 c33 -16 121 -17
1508 -15 l1474 3 24 28 c24 28 24 30 24 242 0 117 -3 221 -6 230 -18 47 34 45
-1531 44 -807 0 -1477 -4 -1488 -9z m275 -159 c0 -5 -6 -12 -12 -14 -10 -4
-10 -6 0 -6 7 -1 15 6 18 14 11 27 33 17 30 -12 -2 -16 -4 -38 -5 -50 -2 -36
-31 -29 -31 8 0 17 -4 28 -10 24 -5 -3 -10 -17 -10 -31 0 -13 -4 -24 -9 -24
-13 0 -20 62 -9 83 9 18 38 24 38 8z m-122 -19 c3 -9 -3 -11 -22 -6 -23 5 -26
3 -26 -20 0 -33 11 -33 41 -1 30 31 65 33 74 4 10 -32 -19 -58 -45 -41 -15 9
-24 9 -39 1 -10 -7 -26 -9 -34 -6 -22 8 -32 54 -16 73 14 17 60 15 67 -4z
m222 -12 c0 -6 7 -6 19 1 10 7 26 9 35 6 24 -9 20 -37 -6 -38 l-23 -2 23 -4
c12 -2 20 -9 17 -14 -10 -15 -43 -10 -53 7 -8 15 -10 15 -15 0 -14 -36 -64 -4
-52 34 7 21 55 30 55 10z m-250 -144 c0 -7 -7 -20 -16 -27 -14 -12 -14 -14 3
-20 14 -6 12 -8 -10 -8 l-28 -1 22 31 22 31 -23 -7 c-15 -5 -20 -4 -16 4 10
16 46 14 46 -3z m50 -22 c0 -28 -3 -35 -17 -32 -12 2 -19 14 -21 36 -3 27 0
32 17 32 17 0 21 -6 21 -36z"/>
<path d="M292 4591 c2 -7 7 -12 11 -12 12 1 9 15 -3 20 -7 2 -11 -2 -8 -8z"/>
<path d="M260 4445 c0 -14 5 -25 10 -25 6 0 10 11 10 25 0 14 -4 25 -10 25 -5
0 -10 -11 -10 -25z"/>
<path d="M96 4119 l-26 -20 0 -230 c0 -216 1 -230 20 -249 20 -20 33 -20 1514
-20 l1495 0 20 26 c20 25 21 39 21 246 l0 219 -25 24 -24 25 -1484 0 -1484 0
-27 -21z m169 -159 c-4 -6 -11 -8 -16 -5 -5 4 -9 -12 -9 -34 0 -23 -4 -41 -10
-41 -5 0 -10 14 -10 31 0 19 -7 37 -17 45 -16 12 -13 13 25 14 27 0 41 -4 37
-10z m62 -27 c10 -14 13 -14 11 -3 -2 10 5 15 22 15 21 0 26 -5 28 -32 3 -29
0 -33 -22 -33 -14 0 -29 7 -34 16 -8 15 -10 15 -15 0 -14 -36 -64 -4 -52 34 8
25 43 26 62 3z m-41 -127 c3 -8 1 -23 -5 -34 -9 -17 -8 -21 7 -25 10 -3 6 -5
-10 -6 -31 -1 -36 10 -13 29 8 7 15 17 15 22 0 6 -7 8 -15 4 -15 -5 -20 5 -8
17 11 11 23 8 29 -7z m-56 -31 c0 -19 -4 -35 -9 -35 -5 0 -11 16 -13 35 -3 24
0 35 9 35 8 0 13 -13 13 -35z"/>
<path d="M3134 2655 c-4 -10 -1 -21 7 -26 20 -12 34 -5 34 17 0 24 -33 31 -41
9z"/>
<path d="M2246 566 c-5 -21 -12 -26 -39 -26 l-32 -1 24 -19 c18 -15 22 -26 17
-46 -6 -23 -5 -24 15 -13 16 8 28 8 47 0 23 -11 24 -10 19 11 -4 15 1 30 15
45 l21 23 -26 0 c-18 0 -31 8 -40 26 l-14 27 -7 -27z m39 -36 c10 0 11 -5 2
-24 -7 -13 -20 -23 -32 -23 -12 0 -25 10 -32 23 -10 21 -9 24 8 24 11 0 19 7
19 18 1 16 1 16 11 0 5 -10 16 -18 24 -18z"/>
<path d="M900 545 c-19 -19 -29 -35 -22 -35 7 0 12 -13 12 -30 0 -23 4 -30 20
-30 15 0 20 7 20 25 0 16 6 25 15 25 9 0 15 -9 15 -25 0 -18 5 -25 20 -25 16
0 20 7 20 30 0 17 5 30 12 30 7 0 -3 16 -22 35 -19 19 -39 35 -45 35 -6 0 -26
-16 -45 -35z"/>
<path d="M821 270 c0 -30 1 -32 11 -16 11 19 11 19 24 1 13 -17 14 -16 13 16
0 19 -3 28 -6 22 -2 -7 -11 -13 -18 -13 -7 0 -16 6 -18 13 -3 6 -6 -4 -6 -23z"/>
<path d="M2081 268 c2 -30 2 -30 6 -6 2 15 12 29 21 31 12 3 10 5 -5 6 -20 1
-23 -4 -22 -31z"/>
<path d="M2332 270 c0 -19 2 -27 5 -17 2 9 2 25 0 35 -3 9 -5 1 -5 -18z"/>
<path d="M2358 295 c-7 -7 3 -55 11 -55 8 0 7 47 -1 55 -2 3 -7 3 -10 0z"/>
<path d="M897 284 c-16 -16 -7 -44 14 -44 15 0 20 5 17 22 -3 22 -19 33 -31
22z m23 -24 c0 -5 -4 -10 -10 -10 -5 0 -10 5 -10 10 0 6 5 10 10 10 6 0 10 -4
10 -10z"/>
<path d="M947 283 c-11 -10 -8 -43 3 -43 6 0 10 11 10 25 0 26 -2 29 -13 18z"/>
<path d="M970 266 c0 -14 5 -26 10 -26 6 0 10 9 10 19 0 11 -4 23 -10 26 -6 4
-10 -5 -10 -19z"/>
<path d="M997 265 c3 -14 10 -25 15 -25 13 0 6 43 -8 47 -7 2 -10 -6 -7 -22z"/>
<path d="M1037 283 c-16 -16 -6 -43 16 -43 16 0 18 3 8 9 -11 7 -11 9 0 13 7
2 9 10 5 16 -8 13 -19 15 -29 5z"/>
<path d="M2149 288 c-9 -42 -8 -48 12 -48 15 0 20 5 17 22 -2 17 -26 39 -29
26z"/>
<path d="M2191 283 c-2 -18 10 -43 20 -43 5 0 9 7 9 16 0 8 -4 13 -9 9 -5 -3
-12 3 -14 12 -3 10 -5 13 -6 6z"/>
<path d="M2239 274 c-9 -11 -9 -18 -1 -26 14 -14 42 -3 42 16 0 20 -27 27 -41
10z m31 -15 c0 -5 -7 -9 -15 -9 -15 0 -20 12 -9 23 8 8 24 -1 24 -14z"/>
<path d="M2302 281 c-8 -5 -12 -16 -10 -25 2 -12 6 -10 15 9 6 14 10 25 10 25
-1 0 -8 -4 -15 -9z"/>
<path d="M2397 284 c-16 -17 -7 -44 16 -43 21 0 21 1 2 9 -18 8 -18 9 -2 9 10
1 17 6 15 13 -5 14 -22 21 -31 12z"/>
</g>
</svg>
