<?xml version="1.0" standalone="no"?>
<!DOCTYPE svg PUBLIC "-//W3C//DTD SVG 20010904//EN"
 "http://www.w3.org/TR/2001/REC-SVG-20010904/DTD/svg10.dtd">
<svg version="1.0" xmlns="http://www.w3.org/2000/svg"
 width="320.000000pt" height="704.000000pt" viewBox="0 0 320.000000 704.000000"
 preserveAspectRatio="xMidYMid meet">

<g transform="translate(0.000000,704.000000) scale(0.100000,-0.100000)"
fill="#000000" stroke="none">
<path d="M0 6385 l0 -655 1320 0 1320 0 0 58 c0 72 24 121 70 144 50 26 250
26 300 0 46 -23 70 -72 70 -144 l0 -58 60 0 60 0 0 655 0 655 -1600 0 -1600 0
0 -655z m2411 594 c30 -16 14 -27 -34 -24 -56 4 -55 4 -33 20 23 18 40 19 67
4z m109 -21 c0 -5 -4 -8 -10 -8 -5 0 -10 10 -10 23 0 18 2 19 10 7 5 -8 10
-18 10 -22z m22 18 c7 5 8 2 3 -7 -5 -8 0 -7 12 4 11 9 23 14 26 10 10 -10 8
-43 -2 -43 -5 0 -8 8 -6 18 1 9 0 11 -2 5 -4 -12 -43 -19 -43 -9 0 2 -2 10 -3
18 -2 7 -2 10 0 5 3 -4 10 -4 15 -1z m108 -4 c0 -10 -7 -19 -15 -19 -8 0 -15
9 -15 19 0 10 7 18 15 18 8 0 15 -8 15 -18z m378 6 c7 -7 12 -29 12 -50 0 -36
-2 -38 -30 -38 -28 0 -30 3 -30 35 0 32 15 64 31 65 3 0 10 -5 17 -12z m-2813
-38 c0 -27 -5 -36 -20 -38 l-20 -4 20 16 c11 9 16 16 10 15 -26 -4 -35 3 -35
27 0 21 4 25 23 22 18 -2 22 -9 22 -38z m99 24 c3 -8 3 -27 0 -40 -5 -18 -12
-24 -28 -22 -21 3 -33 36 -22 64 7 19 42 18 50 -2z m56 -24 c0 -22 -4 -40 -10
-40 -5 0 -10 14 -10 30 0 17 -5 30 -11 30 -5 0 -7 5 -4 10 3 6 13 10 21 10 10
0 14 -12 14 -40z m153 26 c39 -30 0 -70 -64 -64 -27 2 -35 8 -37 26 -2 13 -1
30 2 38 7 18 75 18 99 0z m87 2 c15 -10 22 -10 32 0 24 24 39 14 36 -25 -3
-33 -28 -62 -28 -31 0 7 -11 13 -25 13 -14 0 -25 -6 -25 -13 0 -31 -25 -2 -28
31 -3 39 5 45 38 25z m188 0 c14 -14 16 -48 3 -48 -5 0 -16 -7 -25 -15 -13
-13 -17 -12 -35 11 -24 30 -27 50 -8 57 22 10 53 7 65 -5z m1995 -28 c-9 -22
-20 -40 -25 -40 -4 0 -2 15 6 34 14 33 13 35 -7 39 -15 3 -13 5 10 6 l31 1
-15 -40z m59 0 c2 -22 0 -40 -4 -40 -5 0 -8 14 -8 30 0 17 -5 30 -11 30 -5 0
-7 5 -4 10 13 20 23 9 27 -30z m68 29 c0 -5 5 -7 10 -4 6 3 10 2 10 -4 0 -18
-20 -23 -26 -7 -3 9 -11 16 -16 16 -6 0 -5 -6 2 -15 8 -9 9 -15 2 -15 -15 0
-25 18 -17 30 8 13 35 13 35 -1z m-1995 -29 c0 -22 -29 -18 -33 3 -3 14 1 18
15 15 10 -2 18 -10 18 -18z m1752 -32 c-2 -13 -4 -5 -4 17 -1 22 1 32 4 23 2
-10 2 -28 0 -40z m-282 32 c3 -5 1 -10 -5 -10 -6 0 -8 -4 -5 -10 3 -5 2 -10
-3 -10 -12 0 -23 26 -15 34 9 9 21 7 28 -4z m48 -27 c-5 -12 -8 -13 -11 -4 -4
11 -6 11 -13 0 -4 -7 -12 -10 -16 -5 -9 9 26 38 38 30 4 -2 5 -12 2 -21z m59
2 c3 -14 1 -25 -3 -25 -5 0 -9 11 -9 25 0 14 2 25 4 25 2 0 6 -11 8 -25z m30
0 c-2 -14 -6 -25 -7 -25 -1 0 -5 11 -7 25 -3 16 -1 25 7 25 8 0 10 -9 7 -25z
m34 0 c0 -26 -10 -33 -21 -15 -8 13 1 40 13 40 4 0 8 -11 8 -25z m91 -12 c-3
-10 -5 -4 -5 12 0 17 2 24 5 18 2 -7 2 -21 0 -30z m301 15 c4 -19 -22 -25 -33
-8 -4 6 -11 8 -16 5 -5 -3 -6 0 -3 8 7 20 48 16 52 -5z m-358 -8 c0 -11 -2
-20 -4 -20 -2 0 -6 9 -9 20 -3 11 -1 20 4 20 5 0 9 -9 9 -20z m-1973 -337 c-2
-21 -4 -6 -4 32 0 39 2 55 4 38 2 -18 2 -50 0 -70z m953 55 c0 -29 1 -30 18
-15 26 23 39 21 18 -2 -17 -18 -17 -21 -1 -45 21 -32 4 -35 -18 -3 l-16 22 0
-22 c-1 -13 -5 -23 -11 -23 -6 0 -10 29 -10 66 0 41 4 63 10 59 6 -3 10 -20
10 -37z m-1373 20 c6 -7 10 -33 9 -58 -1 -45 -1 -45 -38 -48 l-38 -3 0 60 c0
60 0 61 29 61 16 0 33 -6 38 -12z m783 -15 l0 -27 30 29 c16 16 32 26 35 23 3
-2 -4 -13 -15 -23 -25 -23 -25 -30 1 -66 11 -16 16 -29 10 -29 -6 0 -18 11
-27 25 -9 14 -20 25 -25 25 -5 0 -9 -11 -9 -25 0 -14 -4 -25 -10 -25 -6 0 -10
27 -10 60 0 33 4 60 10 60 6 0 10 -12 10 -27z m451 5 c5 -65 3 -98 -8 -98 -8
0 -13 13 -13 34 0 19 -5 36 -12 38 -9 3 -8 9 2 21 18 20 30 21 31 5z m1335
-17 c42 -19 84 -67 84 -95 0 -8 15 -23 33 -32 17 -9 46 -26 62 -39 17 -12 46
-26 65 -30 83 -18 130 -72 130 -152 0 -61 -29 -110 -80 -135 -30 -15 -65 -18
-235 -18 -229 0 -256 7 -288 72 -22 45 -16 86 19 127 l24 29 -25 38 c-18 27
-25 50 -25 86 0 78 34 128 107 154 52 18 81 17 129 -5z m-2466 -10 c15 -29 13
-31 -21 -31 -20 0 -29 -4 -26 -12 2 -7 14 -13 26 -12 11 0 21 -3 21 -8 0 -16
-52 -4 -63 14 -8 12 -7 24 1 42 14 31 47 34 62 7z m90 -1 c13 -24 13 -70 0
-70 -5 0 -10 16 -10 35 0 28 -4 35 -20 35 -16 0 -20 -7 -20 -35 0 -19 -4 -35
-10 -35 -5 0 -10 20 -10 43 0 42 1 44 30 45 20 0 33 -6 40 -18z m100 -36 c0
-57 -16 -80 -50 -69 -29 9 -25 23 5 17 15 -2 25 0 25 7 0 6 -9 11 -20 11 -28
0 -46 40 -31 69 9 15 20 21 41 19 29 -2 30 -4 30 -54z m74 50 c11 -4 16 -19
16 -46 0 -38 -1 -39 -32 -36 -25 2 -33 8 -33 23 0 13 8 21 23 23 22 3 28 13
15 25 -3 4 -12 2 -20 -5 -7 -6 -17 -8 -20 -4 -4 4 -1 11 7 16 18 11 23 12 44
4z m96 -35 c0 -33 3 -40 18 -37 11 2 19 16 23 43 l6 40 2 -47 c1 -47 0 -48
-28 -48 -17 0 -31 6 -35 16 -10 25 -7 74 4 74 6 0 10 -18 10 -41z m120 31 c0
-4 -6 -10 -14 -13 -8 -3 -16 -21 -19 -39 -3 -27 -4 -25 -5 12 -2 39 1 46 18
47 11 1 20 -2 20 -7z m32 -27 c2 -26 8 -38 18 -38 10 0 16 12 18 38 4 52 22
46 22 -8 0 -44 0 -45 -34 -45 -37 0 -46 12 -46 61 0 42 18 36 22 -8z m319 -10
c5 -43 5 -43 -27 -43 -18 0 -35 4 -38 9 -11 18 6 41 30 41 13 0 24 5 24 11 0
7 -10 9 -25 7 -14 -3 -25 -2 -25 2 0 13 14 21 35 18 15 -2 21 -13 26 -45z m69
36 c0 -5 -4 -9 -10 -9 -5 0 -10 -16 -10 -35 0 -19 -4 -35 -10 -35 -5 0 -10 19
-10 43 0 36 3 43 20 44 11 1 20 -2 20 -8z m88 -36 c2 -26 -1 -43 -7 -43 -6 0
-11 16 -11 36 0 49 -32 44 -41 -6 -6 -34 -6 -33 -8 11 -1 46 -1 46 32 45 30
-1 32 -3 35 -43z m76 41 c11 -4 16 -19 16 -46 0 -38 -1 -39 -32 -36 -25 2 -33
8 -33 23 0 13 8 21 23 23 22 3 28 13 15 25 -3 4 -12 2 -20 -5 -7 -6 -17 -8
-20 -4 -4 4 -1 11 7 16 18 11 23 12 44 4z m154 -6 c7 -7 12 -27 12 -45 0 -31
-2 -33 -34 -33 -36 0 -53 19 -33 39 6 6 19 11 29 11 10 0 18 4 18 8 0 17 -13
21 -31 11 -11 -5 -19 -6 -19 -1 0 23 38 30 58 10z m180 -35 c3 -42 2 -43 -27
-43 -16 0 -32 4 -35 9 -11 18 6 41 30 41 13 0 24 5 24 11 0 7 -10 9 -25 7 -14
-3 -25 -2 -25 2 0 13 14 21 35 18 16 -2 21 -12 23 -45z m-798 -43 c0 -11 -4
-20 -9 -20 -5 0 -7 9 -4 20 3 11 7 20 9 20 2 0 4 -9 4 -20z m-661 -171 c60
-21 55 -81 -14 -157 l-46 -51 56 -3 c84 -5 72 -23 -17 -26 -98 -4 -100 6 -23
90 57 61 68 95 40 118 -20 17 -61 5 -68 -20 -3 -11 -13 -20 -22 -20 -12 0 -15
5 -11 16 3 9 6 20 6 25 0 8 27 23 66 39 1 0 15 -5 33 -11z m469 0 c41 -14 55
-53 50 -135 -5 -75 -27 -104 -78 -104 -47 0 -70 40 -70 122 0 77 10 105 43
118 12 5 22 9 23 9 1 1 15 -4 32 -10z m156 -2 c38 -27 -2 -96 -41 -71 -25 16
-28 42 -7 65 20 23 25 23 48 6z m217 -16 c10 -9 20 -26 24 -38 9 -32 -22 -31
-34 1 -16 40 -59 48 -91 16 -26 -26 -29 -130 -4 -154 24 -25 71 -20 90 9 9 14
23 25 30 25 17 0 17 -2 3 -33 -23 -50 -100 -62 -142 -23 -46 43 -46 157 1 199
33 29 93 29 123 -2z m-601 4 c0 -11 -12 -15 -49 -15 -47 0 -49 -1 -53 -30 -4
-26 -2 -29 14 -24 36 11 69 -5 84 -41 12 -31 12 -39 0 -70 -24 -57 -105 -60
-133 -5 -17 33 4 41 27 10 12 -15 25 -21 46 -18 25 3 29 8 32 36 5 50 -13 65
-66 57 l-45 -7 7 32 c3 18 6 45 6 61 0 29 0 29 65 29 51 0 65 -3 65 -15z m76
-196 c10 -17 -13 -36 -27 -22 -12 12 -4 33 11 33 5 0 12 -5 16 -11z"/>
<path d="M2353 6972 c-6 -4 6 -7 27 -7 21 0 33 3 27 7 -7 4 -19 8 -27 8 -8 0
-20 -4 -27 -8z"/>
<path d="M180 6956 c0 -9 7 -16 16 -16 17 0 14 22 -4 28 -7 2 -12 -3 -12 -12z"/>
<path d="M274 6955 c-8 -19 2 -45 16 -45 5 0 10 14 10 30 0 31 -16 41 -26 15z"/>
<path d="M460 6940 c0 -5 5 -10 10 -10 6 0 10 5 10 10 0 6 -4 10 -10 10 -5 0
-10 -4 -10 -10z"/>
<path d="M605 6946 c14 -10 23 -11 37 -3 9 6 15 13 13 16 -3 2 -11 -2 -19 -8
-10 -8 -16 -9 -21 -1 -3 5 -11 10 -18 10 -6 0 -2 -6 8 -14z"/>
<path d="M2935 6920 c-3 -5 -1 -10 4 -10 6 0 11 5 11 10 0 6 -2 10 -4 10 -3 0
-8 -4 -11 -10z"/>
<path d="M160 6625 c0 -8 9 -15 20 -15 11 0 20 7 20 15 0 8 -9 15 -20 15 -11
0 -20 -7 -20 -15z"/>
<path d="M160 6570 c0 -16 5 -21 23 -18 12 2 22 10 22 18 0 8 -10 16 -22 18
-18 3 -23 -2 -23 -18z"/>
<path d="M260 6600 c0 -5 9 -10 20 -10 11 0 20 5 20 10 0 6 -9 10 -20 10 -11
0 -20 -4 -20 -10z"/>
<path d="M444 6595 c-9 -21 3 -45 21 -45 10 0 15 10 15 30 0 32 -26 43 -36 15z"/>
<path d="M535 6571 c-3 -5 -1 -12 5 -16 12 -7 30 2 30 16 0 12 -27 12 -35 0z"/>
<path d="M1090 6564 c0 -9 7 -14 17 -12 25 5 28 28 4 28 -12 0 -21 -6 -21 -16z"/>
<path d="M1335 6571 c-3 -5 -1 -12 5 -16 12 -7 30 2 30 16 0 12 -27 12 -35 0z"/>
<path d="M1485 6571 c-3 -5 -1 -12 5 -16 12 -7 30 2 30 16 0 12 -27 12 -35 0z"/>
<path d="M1660 6564 c0 -9 7 -14 17 -12 25 5 28 28 4 28 -12 0 -21 -6 -21 -16z"/>
<path d="M660 6331 c-14 -27 -13 -144 2 -159 21 -21 58 -14 68 14 15 39 12
117 -6 142 -19 27 -50 29 -64 3z"/>
<path d="M834 6339 c-8 -14 11 -33 25 -25 6 4 11 14 11 22 0 16 -26 19 -36 3z"/>
<path d="M2850 5765 c0 -18 -5 -25 -20 -25 -11 0 -20 -4 -20 -10 0 -5 9 -10
20 -10 13 0 20 -7 20 -20 0 -11 5 -20 10 -20 6 0 10 9 10 20 0 13 7 20 19 20
11 0 23 5 26 10 4 6 -5 10 -19 10 -21 0 -26 5 -26 25 0 14 -4 25 -10 25 -5 0
-10 -11 -10 -25z"/>
<path d="M120 5473 c-49 -18 -50 -22 -50 -268 0 -223 1 -233 21 -251 21 -18
62 -19 1493 -22 809 -1 1481 0 1494 3 12 3 31 14 42 25 19 19 20 34 20 239 0
121 -3 227 -6 236 -18 47 34 45 -1531 44 -807 0 -1475 -3 -1483 -6z m350 -168
c0 -8 7 -15 15 -15 8 0 15 -6 16 -12 0 -10 2 -10 6 0 7 18 23 15 24 -5 1 -17
2 -17 6 0 8 32 26 19 19 -15 -8 -39 -14 -46 -27 -28 -8 13 -10 13 -18 0 -12
-17 -15 -14 -29 25 l-10 30 -1 -33 c-1 -30 -4 -33 -28 -30 -22 2 -29 9 -31 31
-3 22 1 30 17 34 12 3 21 12 21 19 0 8 5 14 10 14 6 0 10 -7 10 -15z m120 -35
c0 -29 -5 -50 -11 -50 -10 0 -11 74 -2 93 9 17 13 4 13 -43z m100 36 c0 -7 9
-16 20 -19 15 -4 20 -14 20 -36 0 -17 -4 -31 -10 -31 -5 0 -10 11 -10 25 0 14
-4 25 -10 25 -5 0 -10 -11 -10 -25 0 -14 -4 -25 -10 -25 -5 0 -10 23 -10 50 0
28 5 50 10 50 6 0 10 -6 10 -14z m-432 -15 c3 -10 -2 -11 -19 -6 l-24 8 24
-20 c16 -13 22 -26 18 -36 -8 -22 -41 -22 -58 0 -13 15 -11 16 16 10 l30 -7
-27 20 c-33 25 -27 52 10 48 14 -2 27 -9 30 -17z m70 -39 c3 -31 2 -33 -25
-30 -32 3 -46 37 -16 39 17 1 17 2 0 6 -24 6 -10 25 16 21 17 -2 23 -11 25
-36z m66 22 c9 -24 7 -54 -4 -54 -5 0 -10 11 -10 25 0 14 -4 25 -10 25 -5 0
-10 -11 -10 -25 0 -14 -4 -25 -10 -25 -5 0 -10 16 -10 35 0 30 3 35 24 35 13
0 27 -7 30 -16z m264 -3 c3 -9 -2 -11 -17 -6 -15 5 -21 2 -21 -10 0 -12 6 -15
21 -10 15 5 20 3 17 -6 -7 -21 -44 -23 -52 -3 -11 28 3 56 27 52 11 -2 22 -9
25 -17z m-428 -156 c0 -19 -4 -35 -10 -35 -5 0 -10 9 -10 19 0 11 -3 26 -6 35
-4 11 -1 16 10 16 12 0 16 -10 16 -35z m48 -2 c-1 -38 -1 -38 -5 -5 -3 20 -8
30 -15 26 -7 -4 -8 -2 -4 4 14 24 26 11 24 -25z m67 2 c0 -23 -4 -30 -20 -30
-21 0 -31 25 -21 51 11 28 41 12 41 -21z"/>
<path d="M430 5255 c0 -8 5 -15 10 -15 6 0 10 7 10 15 0 8 -4 15 -10 15 -5 0
-10 -7 -10 -15z"/>
<path d="M312 5119 c1 -13 8 -23 13 -21 15 3 12 35 -3 40 -9 3 -13 -3 -10 -19z"/>
<path d="M96 4789 l-26 -20 0 -233 c0 -224 1 -234 21 -252 21 -19 60 -19 1509
-19 l1488 0 26 24 26 24 0 218 c0 120 -3 225 -6 234 -18 47 34 45 -1537 45
l-1474 0 -27 -21z m294 -148 c0 -5 -6 -12 -12 -14 -10 -4 -10 -6 0 -6 7 -1 15
6 18 14 10 24 34 18 30 -7 -3 -13 -5 -35 -5 -50 -1 -40 -31 -38 -31 2 0 17 -4
30 -10 30 -5 0 -10 -13 -10 -30 0 -16 -4 -30 -9 -30 -12 0 -19 66 -8 85 9 16
37 21 37 6z m-125 -12 c10 -16 -3 -23 -18 -11 -17 15 -27 6 -27 -25 0 -24 14
-31 25 -13 4 6 10 8 15 5 5 -3 11 4 15 15 9 28 51 27 60 -1 10 -32 -19 -58
-45 -41 -15 9 -24 9 -39 1 -10 -7 -26 -9 -34 -6 -22 8 -32 53 -17 72 14 17 56
20 65 4z m225 -19 c0 -6 7 -6 19 1 10 7 26 9 35 6 24 -9 20 -37 -6 -38 l-23
-2 23 -4 c12 -2 20 -9 17 -14 -10 -14 -45 -10 -51 6 -4 8 -16 15 -28 14 -20 0
-20 -1 -1 -9 19 -7 19 -8 2 -15 -25 -11 -51 16 -42 44 7 22 55 31 55 11z
m-250 -144 c0 -7 -7 -20 -16 -27 -14 -12 -14 -14 3 -20 14 -6 12 -8 -11 -8
-27 -1 -28 0 -14 17 30 35 33 46 10 40 -12 -4 -20 -2 -16 3 8 14 44 10 44 -5z
m48 -18 c-2 -21 -8 -33 -18 -33 -10 0 -16 12 -18 33 -3 27 0 32 18 32 18 0 21
-5 18 -32z"/>
<path d="M292 4591 c2 -7 7 -12 11 -12 12 1 9 15 -3 20 -7 2 -11 -2 -8 -8z"/>
<path d="M260 4445 c0 -14 5 -25 10 -25 6 0 10 11 10 25 0 14 -4 25 -10 25 -5
0 -10 -11 -10 -25z"/>
<path d="M2887 3933 c-15 -4 -17 -14 -15 -66 l3 -62 47 -3 46 -3 4 63 c2 35 3
64 2 66 -3 6 -70 10 -87 5z"/>
<path d="M3134 2655 c-4 -9 -2 -21 4 -27 15 -15 44 -1 40 19 -4 23 -36 29 -44
8z"/>
<path d="M2245 568 c-6 -23 -13 -28 -39 -28 l-31 -1 24 -19 c18 -15 22 -26 17
-46 -6 -23 -5 -24 15 -13 16 8 28 8 47 0 23 -11 24 -10 19 11 -4 15 1 30 15
45 l21 23 -26 0 c-19 0 -31 8 -41 28 l-14 27 -7 -27z m40 -38 c10 0 11 -5 2
-24 -7 -13 -20 -23 -32 -23 -12 0 -25 10 -32 23 -10 21 -9 24 8 24 11 0 19 7
19 18 1 16 1 16 11 0 5 -10 16 -18 24 -18z"/>
<path d="M900 545 c-19 -19 -29 -35 -22 -35 7 0 12 -13 12 -30 0 -23 4 -30 20
-30 15 0 20 7 20 25 0 16 6 25 15 25 9 0 15 -9 15 -25 0 -18 5 -25 20 -25 16
0 20 7 20 30 0 17 5 30 12 30 7 0 -3 16 -22 35 -19 19 -39 35 -45 35 -6 0 -26
-16 -45 -35z"/>
<path d="M822 270 c0 -19 2 -29 5 -22 2 6 11 12 18 12 7 0 16 -6 18 -12 3 -7
5 3 5 22 0 19 -2 29 -5 23 -2 -7 -11 -13 -18 -13 -7 0 -16 6 -18 13 -3 6 -5
-4 -5 -23z"/>
<path d="M2081 268 c2 -30 2 -30 6 -6 2 15 12 29 21 31 12 3 10 5 -5 6 -20 1
-23 -4 -22 -31z"/>
<path d="M2332 270 c0 -19 2 -27 5 -17 2 9 2 25 0 35 -3 9 -5 1 -5 -18z"/>
<path d="M2358 295 c-7 -7 3 -55 11 -55 8 0 7 47 -1 55 -2 3 -7 3 -10 0z"/>
<path d="M897 284 c-16 -16 -7 -44 14 -44 15 0 20 5 17 22 -3 22 -19 33 -31
22z m23 -24 c0 -5 -4 -10 -10 -10 -5 0 -10 5 -10 10 0 6 5 10 10 10 6 0 10 -4
10 -10z"/>
<path d="M947 284 c-10 -11 -9 -44 2 -44 5 0 12 10 14 23 l4 22 2 -22 c0 -13
6 -23 12 -23 16 0 6 44 -11 48 -9 1 -19 0 -23 -4z"/>
<path d="M997 265 c3 -14 10 -25 15 -25 13 0 6 43 -8 47 -7 2 -10 -6 -7 -22z"/>
<path d="M1037 283 c-16 -16 -6 -43 16 -43 16 0 18 3 8 9 -11 7 -11 9 0 13 7
2 9 10 5 16 -8 13 -19 15 -29 5z"/>
<path d="M2149 288 c-9 -42 -8 -48 12 -48 15 0 20 5 17 22 -2 17 -26 39 -29
26z"/>
<path d="M2191 283 c-1 -18 10 -43 20 -43 5 0 9 8 9 17 0 15 1 15 14 -2 15
-21 46 -15 46 9 0 21 -19 30 -35 16 -12 -10 -15 -10 -15 1 0 9 -5 6 -12 -6
-11 -19 -11 -19 -19 0 -4 11 -8 15 -8 8z m79 -24 c0 -5 -7 -9 -15 -9 -15 0
-20 12 -9 23 8 8 24 -1 24 -14z"/>
<path d="M2302 281 c-8 -5 -12 -16 -10 -25 2 -12 6 -10 15 9 6 14 10 25 10 25
-1 0 -8 -4 -15 -9z"/>
<path d="M2397 284 c-16 -17 -7 -44 16 -43 21 0 21 1 2 9 -18 8 -18 9 -2 9 10
1 17 6 15 13 -5 14 -22 21 -31 12z"/>
</g>
</svg>
